<?xml version="1.0" encoding="utf-8"?>
<svg viewBox="0 -15 80 32.058" preserveAspectRatio="none" xmlns="http://www.w3.org/2000/svg">
  <g transform="matrix(0.314633, 0, 0, -0.324945, 40.900517, -0.536785)" id="g114">
    <path id="path116" style="fill:#414142;fill-opacity:1;fill-rule:nonzero;stroke:none" d="m 0,0 c -16.08,2.998 -29.162,5.86 -29.162,17.989 0,15.262 17.715,19.351 28.89,19.351 v -0.038 h 1.738 c 0.032,0 0.064,-0.002 0.095,-0.003 0,0 87.34,0.041 87.959,0.041 0.59,0 1.18,-0.017 1.77,-0.041 h 1.89 V 37.18 c 9.515,-0.798 18.799,-4.72 26.048,-11.969 l 5.042,4.361 c -9.539,9.539 -22.213,14.309 -34.75,14.309 -0.704,0 -89.792,0.272 -89.792,0.272 -15.672,0 -36.658,-6.268 -36.249,-26.437 0,-17.579 17.852,-21.123 35.295,-24.529 15.671,-2.999 31.479,-6.133 31.343,-20.442 0,-11.649 -8.873,-16.82 -18.225,-18.91 H -39.18 l -39.903,88.956 h -8.04 l -42.79,-95.393 h 7.904 l 38.838,88.306 38.975,-88.306 H -13 c 0,0 19.64,-0.429 31.817,1.502 9.484,2.406 18.581,11.405 18.659,23.709 C 37.476,-6.813 18.398,-3.543 0,0"/>
  </g>
  <g transform="matrix(0.314633, 0, 0, -0.324945, 78.456467, 10.754905)" id="g118">
    <path id="path120" style="fill:#414142;fill-opacity:1;fill-rule:nonzero;stroke:none" d="m 0,0 c -8.177,-8.04 -19.078,-12.129 -29.844,-12.129 -27.527,0 -41.7,19.351 -41.973,41.701 -0.065,10.921 3.17,21.088 9.578,28.745 h -8.471 c -5.541,-8.373 -8.305,-18.549 -8.193,-29.019 0.137,-25.755 16.898,-48.241 49.059,-48.241 12.537,0 25.211,4.77 34.75,14.31 z"/>
  </g>
</svg>